<svg width="40" height="40" viewBox="0 0 40 40" fill="none" xmlns="http://www.w3.org/2000/svg">
<g clip-path="url(#clip0)">
<path d="M36.9679 5.22187C36.5211 3.43344 35.4048 1.92641 33.8238 0.977812C32.8337 0.385547 31.7088 0.0475781 30.571 0.00046875C30.5629 0.00015625 30.5548 0 30.5467 0H30.013C30.0048 0 29.9965 0.00015625 29.9883 0.000546875C27.6597 0.0985937 25.5547 1.34805 24.3573 3.34297C22.9086 5.75898 23.0843 8.84094 24.7806 11.0733L25.0169 14.7175C25.0294 14.9095 25.1353 15.083 25.3002 15.182C25.3926 15.2374 25.497 15.2655 25.6016 15.2655C25.6839 15.2655 25.7662 15.2483 25.8433 15.2134L29.1708 13.7069C31.9383 14.1546 34.7397 12.8605 36.189 10.4457C37.138 8.86555 37.4147 7.01039 36.9679 5.22187ZM35.1844 9.84227C35.1843 9.84234 35.1842 9.84242 35.1842 9.8425C34.1393 11.5836 32.2484 12.6228 30.2641 12.6227C29.9123 12.6227 29.557 12.5899 29.2035 12.5227C29.0849 12.5001 28.9623 12.5147 28.8522 12.5645L26.1315 13.7963L25.9383 10.817C25.9305 10.6966 25.8858 10.5816 25.8101 10.4877C24.3124 8.6257 24.1324 5.99664 25.3622 3.94578C26.354 2.29336 28.0967 1.25711 30.0256 1.17188H30.5343C31.4735 1.21273 32.4027 1.49328 33.2216 1.98305C34.5333 2.77016 35.46 4.02125 35.8308 5.50586C36.2019 6.9907 35.9723 8.5307 35.1844 9.84227Z" fill="#C6A57A"/>
<path d="M34.0474 6.18545L29.2405 3.13866C28.8716 2.90405 28.539 2.86491 28.2523 3.02248C28.057 3.12975 27.8242 3.36842 27.8242 3.89662V9.91584C27.8242 10.4433 28.0572 10.682 28.2526 10.7894C28.368 10.8527 28.4905 10.8843 28.6198 10.8843C28.8124 10.8843 29.0198 10.8142 29.2398 10.6743L34.0475 7.62701C34.0505 7.62506 34.0536 7.62311 34.0566 7.62115C34.4224 7.37975 34.477 7.06959 34.477 6.90615C34.477 6.6224 34.3209 6.35998 34.0474 6.18545ZM28.996 9.44131V4.37115L32.9956 6.90623L28.996 9.44131Z" fill="#C6A57A"/>
<path d="M15.1432 19.2329L19.8717 20.0949C19.9066 20.1014 19.9418 20.1045 19.9768 20.1045C20.1307 20.1045 20.2802 20.0437 20.3911 19.9328C20.5271 19.7968 20.5878 19.6027 20.5532 19.4135L19.6912 14.6849C21.1286 11.3867 20.3986 7.49408 17.8467 4.94205C16.184 3.27939 13.974 2.36377 11.6237 2.36377C9.27333 2.36377 7.06333 3.27947 5.40067 4.94205C5.17184 5.17088 5.17184 5.54189 5.40067 5.77064C5.62958 5.99955 6.00051 5.99947 6.22934 5.77064C7.67059 4.32932 9.58637 3.53557 11.6237 3.53557C13.661 3.53557 15.5768 4.32932 17.018 5.77064C19.2688 8.02143 19.8845 11.4754 18.5502 14.3654C18.4997 14.4749 18.4841 14.5974 18.5058 14.7161L19.2485 18.7901L15.1746 18.0474C15.056 18.0258 14.9334 18.0412 14.8239 18.0918C11.934 19.426 8.4802 18.8103 6.22958 16.5598C3.94684 14.2749 3.34754 10.7846 4.73817 7.8744C4.8777 7.58244 4.75411 7.2326 4.46215 7.09307C4.17028 6.95346 3.82036 7.07713 3.6809 7.36908C2.07661 10.7263 2.7677 14.7526 5.40075 17.3882C7.95239 19.9402 11.8451 20.6699 15.1432 19.2329Z" fill="#C6A57A"/>
<path d="M15.8028 15.1591C16.3823 15.1591 16.8538 14.6876 16.8538 14.1081V8.7111C16.8538 8.13282 16.3823 7.66235 15.8028 7.66235H7.54492C6.96664 7.66235 6.49609 8.13282 6.49609 8.7111V14.1081C6.49609 14.6876 6.96656 15.1591 7.54492 15.1591H15.8028ZM7.66797 13.9872V9.41899L11.3206 12.1919C11.4254 12.2714 11.5502 12.3111 11.6749 12.3111C11.7997 12.3111 11.9245 12.2713 12.0293 12.1918L15.6819 9.41759V13.9872H7.66797ZM8.83578 8.83423H14.5124L11.6748 10.9895L8.83578 8.83423Z" fill="#C6A57A"/>
<path d="M33.6274 24.4244H32.8049V18.6517C32.8051 17.8847 32.8052 17.2222 32.2498 16.9454C31.7504 16.6965 31.2169 17.0188 30.808 17.3272C25.9541 20.9828 22.231 22.2785 16.5802 22.2785H14.7111C12.0973 22.2785 9.9707 24.405 9.9707 27.0189C9.9707 29.6316 12.0973 31.7572 14.7111 31.7572H14.9016L16.0859 39.0297C16.0872 39.0375 16.0886 39.0451 16.0902 39.0528C16.2527 39.8489 16.6609 39.9999 17.3574 39.9999H19.5808C20.1847 39.9999 20.6761 39.5076 20.6761 38.9024V35.0215H22.0367C23.0155 35.0215 23.8119 34.2242 23.8119 33.2442V32.8018C26.122 33.5789 28.3164 34.833 30.8084 36.711C31.1153 36.9418 31.4921 37.1803 31.8717 37.1803C31.9984 37.1803 32.1256 37.1536 32.2505 37.0913C32.8053 36.8143 32.8052 36.1525 32.8051 35.3862V30.6411H33.6276C34.7273 30.6411 35.6219 29.7464 35.6219 28.6468V26.4189C35.6217 25.3191 34.7271 24.4244 33.6274 24.4244ZM14.0365 30.5206C12.3903 30.2044 11.1425 28.755 11.1425 27.0189C11.1425 25.2818 12.3903 23.8314 14.0365 23.5151V30.5206ZM19.5041 38.828H17.3573C17.3104 38.828 17.2719 38.8275 17.2402 38.8266L16.0888 31.7572H16.5801C17.6131 31.7572 18.5813 31.8011 19.5041 31.8942V38.828ZM22.6398 33.2441C22.6398 33.5779 22.3692 33.8496 22.0366 33.8496H20.6759V32.0438C21.3495 32.1481 22.0016 32.2825 22.6398 32.4504V33.2441ZM31.6272 35.8572C31.593 35.8336 31.5549 35.8062 31.5131 35.7747C30.696 35.159 29.9095 34.6079 29.1399 34.1153V28.5802C29.1399 28.2566 28.8777 27.9943 28.554 27.9943C28.2303 27.9943 27.968 28.2566 27.968 28.5802V33.4041C24.4091 31.3644 21.077 30.5853 16.5801 30.5853H15.2084V23.4503H16.5801C21.0765 23.4503 24.4085 22.6714 27.968 20.6323V25.8739C27.968 26.1975 28.2303 26.4599 28.554 26.4599C28.8777 26.4599 29.1399 26.1975 29.1399 25.8739V19.9216C29.9096 19.4292 30.6961 18.8785 31.5133 18.263C31.5551 18.2315 31.593 18.2042 31.6272 18.1804C31.6331 18.3304 31.6331 35.7073 31.6272 35.8572ZM34.4498 28.6467C34.4498 29.1002 34.0809 29.4692 33.6274 29.4692H32.8049V25.5963H33.6274C34.0809 25.5963 34.4498 25.9653 34.4498 26.4188V28.6467Z" fill="#C6A57A"/>
</g>
<defs>
<clipPath id="clip0">
<rect width="40" height="40" fill="white"/>
</clipPath>
</defs>
</svg>
