<svg width="40" height="40" viewBox="0 0 40 40" fill="none" xmlns="http://www.w3.org/2000/svg">
<g clip-path="url(#clip0)">
<path d="M37.9362 3.54589H24.0336C23.3041 2.51776 22.4208 1.56737 21.3849 0.700107C20.2713 -0.233174 19.727 -0.233486 18.6109 0.699873C17.5748 1.56729 16.6914 2.51769 15.962 3.54589H2.05922C0.929141 3.54589 0.00976562 4.46526 0.00976562 5.59542V15.3626C0.00976562 15.6862 0.272109 15.9485 0.595625 15.9485C0.919141 15.9485 1.18148 15.6862 1.18148 15.3626V5.59542C1.18148 5.11143 1.57523 4.71769 2.05922 4.71769H15.2155C14.4726 6.02925 13.9568 7.45253 13.673 8.97948C13.6655 9.01933 13.659 9.05933 13.6519 9.09925C12.4209 9.41245 11.5132 10.2218 10.9523 11.5139C10.4398 12.6942 10.2647 14.1417 10.1101 15.4189C10.0372 16.0214 9.96828 16.5906 9.87109 17.0976C9.76758 17.6421 9.89992 18.1359 10.2341 18.4525C10.4684 18.6744 10.7734 18.7887 11.1181 18.7887C11.2545 18.7887 11.3971 18.7708 11.5441 18.7346L14.4801 18.0075C14.5631 18.2599 14.6505 18.5132 14.7433 18.7677C14.7807 18.8703 14.8095 18.956 14.8334 19.0278C14.9863 19.484 15.1514 19.6943 15.4906 19.7712C15.16 20.4282 15.0004 21.2194 15.0327 22.0817C14.2939 22.3028 13.6262 22.7196 13.0802 23.3065C11.7784 23.1285 10.4522 23.2892 9.31094 23.7685C8.02078 24.3101 7.06016 25.2141 6.5082 26.3951H1.18148V18.1748C1.18148 17.8512 0.919141 17.5889 0.595625 17.5889C0.272109 17.5889 0.00976562 17.8512 0.00976562 18.1748V29.5804C0.00976562 30.7105 0.929141 31.6299 2.05922 31.6299H13.5442L12.4656 35.2455H10.6969C9.38609 35.2455 8.31969 36.3119 8.31969 37.6227V38.8782C8.31969 39.4967 8.82187 40 9.43922 40H30.6005C31.2179 40 31.7201 39.4967 31.7201 38.8782V37.6227C31.7201 36.3119 30.6537 35.2455 29.3429 35.2455H27.5741L26.4955 31.6299H37.9362C39.0676 31.6299 39.988 30.7106 39.988 29.5804V5.59542C39.9879 4.46526 39.0675 3.54589 37.9362 3.54589ZM11.2628 17.5971C11.1248 17.631 11.0513 17.6124 11.04 17.6019C11.0209 17.5838 10.9898 17.4868 11.0221 17.3174C11.1268 16.7715 11.198 16.1829 11.2734 15.5598C11.5829 13.0026 11.9432 11.0757 13.4799 10.3918C13.2963 12.4474 13.5176 14.6206 14.1405 16.8846L11.2628 17.5971ZM15.0391 15.6469C13.7568 9.96362 15.2473 5.04417 19.3628 1.59854C19.6986 1.31776 19.9125 1.17534 19.9986 1.17534C20.0844 1.17534 20.2976 1.31761 20.6325 1.59839C24.7477 5.04386 26.2387 9.96339 24.9578 15.647H21.8668V15.5818C21.8668 14.5518 21.0288 13.7139 19.9989 13.7139C18.9677 13.7139 18.1287 14.5518 18.1287 15.5818V15.647H15.0391V15.6469ZM19.9988 21.5949C21.0017 21.5949 21.8221 20.7995 21.8647 19.8057H23.1304C23.6802 20.4282 23.7973 21.279 23.7946 21.8997C22.4595 21.8724 21.1306 22.4212 19.9988 23.4612C18.867 22.421 17.5384 21.8705 16.202 21.8997C16.1984 21.28 16.3148 20.4299 16.8654 19.8057H18.1307C18.1734 20.7995 18.9948 21.5949 19.9988 21.5949ZM19.3005 19.7247V15.5818C19.3005 15.1979 19.6138 14.8857 19.9988 14.8857C20.3762 14.8857 20.695 15.2045 20.695 15.5818V19.7247C20.695 20.1098 20.3827 20.4232 19.9988 20.4232C19.6138 20.4231 19.3005 20.1098 19.3005 19.7247ZM21.8667 18.6339V16.8187H24.6577C24.6312 16.9107 24.2995 17.9656 24.1537 18.3657C24.1153 18.4708 24.0851 18.5601 24.0597 18.636C24.058 18.6359 24.0565 18.6359 24.0549 18.6359C23.9909 18.6349 21.8667 18.6339 21.8667 18.6339ZM15.3395 16.8187H18.1287V18.6339C18.1287 18.6339 16.0067 18.6349 15.9427 18.6358C15.9412 18.6358 15.9396 18.6358 15.938 18.6359C15.9126 18.56 15.8823 18.4707 15.844 18.3659C15.654 17.8449 15.4861 17.329 15.3395 16.8187ZM13.2045 24.5126C13.416 24.5513 13.6318 24.4709 13.7665 24.3032C14.3774 23.5424 15.2341 23.1053 16.1786 23.0726C17.3644 23.0318 18.5688 23.6044 19.5686 24.686C19.6795 24.806 19.8355 24.8742 19.9988 24.8742C20.1622 24.8742 20.3182 24.806 20.4291 24.686C21.4286 23.6046 22.6314 23.0315 23.817 23.0725C24.7617 23.105 25.6192 23.5422 26.2314 24.3035C26.3661 24.471 26.5817 24.5514 26.7933 24.5126C28.6786 24.1679 31.0072 24.6452 32.1532 26.395H7.84453C8.99039 24.6457 11.3187 24.1684 13.2045 24.5126ZM30.5483 37.6227V38.8282H9.49148V37.6227C9.49148 36.958 10.0323 36.4173 10.6969 36.4173H29.3428C30.0075 36.4173 30.5483 36.958 30.5483 37.6227ZM38.8162 29.5804C38.8162 30.0644 38.4214 30.4582 37.9362 30.4582H21.4979C21.1743 30.4582 20.912 30.7204 20.912 31.044C20.912 31.3676 21.1744 31.6299 21.4979 31.6299H25.2727L26.3512 35.2454H13.6884L14.767 31.6299H18.5684C18.892 31.6299 19.1543 31.3676 19.1543 31.044C19.1543 30.7204 18.892 30.4582 18.5684 30.4582H2.05922C1.57523 30.4582 1.18148 30.0643 1.18148 29.5804V27.5667H38.8161V29.5804H38.8162ZM38.8162 26.395H33.4895C32.9375 25.2141 31.9766 24.3101 30.6859 23.7684C29.5442 23.2892 28.2181 23.1284 26.9173 23.3064C26.3708 22.7195 25.703 22.3028 24.9643 22.0817C24.9955 21.2187 24.8356 20.4275 24.5054 19.7712C24.8466 19.6946 25.011 19.4852 25.1642 19.0277C25.1882 18.956 25.2169 18.8703 25.2545 18.7671C25.3471 18.513 25.4343 18.26 25.5172 18.0079L28.4518 18.7346C28.5986 18.7708 28.7411 18.7887 28.8775 18.7887C29.2226 18.7887 29.5282 18.6741 29.7629 18.4517C30.0973 18.1349 30.2298 17.6414 30.1262 17.0967C30.0292 16.5908 29.9603 16.0221 29.8873 15.4201C29.7325 14.1428 29.557 12.6949 29.0445 11.5143C28.4832 10.2214 27.5751 9.41159 26.3436 9.09862C26.3366 9.05886 26.33 9.01893 26.3226 8.97925C26.0386 7.45229 25.5227 6.02909 24.7798 4.71753H37.9361C38.4212 4.71753 38.816 5.11136 38.816 5.59526V26.395H38.8162ZM26.5159 10.391C28.0533 11.0745 28.4141 13.0024 28.7242 15.5611C28.7997 16.1838 28.871 16.7719 28.9754 17.3165C29.0077 17.486 28.9763 17.583 28.9571 17.6011C28.9487 17.6092 28.8819 17.6339 28.733 17.5971L25.8566 16.8848C26.479 14.6204 26.6998 12.4469 26.5159 10.391Z" fill="#C6A57A"/>
<path d="M18.3144 11.1832C18.7666 11.4786 19.092 11.5883 19.5037 11.6232V11.7864C19.5037 12.11 19.766 12.3723 20.0895 12.3723C20.4131 12.3723 20.6754 12.11 20.6754 11.7864V11.5068C21.371 11.2404 21.815 10.6052 21.9206 9.97754C22.0709 9.08332 21.5861 8.27574 20.7147 7.96824C20.2511 7.80402 19.7383 7.60598 19.454 7.38527C19.3821 7.32855 19.3515 7.18598 19.3795 7.03879C19.3941 6.96215 19.4616 6.70605 19.7211 6.62785C19.854 6.58769 19.9742 6.57535 20.0812 6.57941C20.084 6.57941 20.0867 6.5798 20.0895 6.5798C20.0906 6.5798 20.0916 6.57965 20.0927 6.57965C20.3429 6.59207 20.5166 6.69613 20.5946 6.75418C20.8542 6.94715 21.2213 6.89324 21.4144 6.63363C21.6075 6.37395 21.5535 6.00691 21.2939 5.81387C21.1763 5.72652 20.9638 5.59285 20.6755 5.50223V5.0927C20.6755 4.7691 20.4131 4.50684 20.0896 4.50684C19.766 4.50684 19.5038 4.7691 19.5038 5.0927V5.47418C19.4636 5.4841 19.4236 5.49363 19.3825 5.50605C18.7907 5.68441 18.3484 6.18793 18.2284 6.81996C18.1173 7.40496 18.3087 7.97395 18.7318 8.30793C19.07 8.57043 19.5312 8.79207 20.3242 9.07293C20.7845 9.23535 20.7981 9.5877 20.7652 9.78332C20.7131 10.0932 20.4625 10.4262 20.0314 10.4618C20.0309 10.4618 20.0303 10.4618 20.0298 10.4618C20.0073 10.4636 19.9846 10.4653 19.9611 10.4654C19.4703 10.4695 19.3302 10.447 18.9553 10.2021C18.6845 10.0253 18.3213 10.1013 18.1444 10.3722C17.9673 10.6431 18.0434 11.0061 18.3144 11.1832Z" fill="#C6A57A"/>
</g>
<defs>
<clipPath id="clip0">
<rect width="40" height="40" fill="white"/>
</clipPath>
</defs>
</svg>
