<svg width="40" height="40" viewBox="0 0 40 40" fill="none" xmlns="http://www.w3.org/2000/svg">
<g clip-path="url(#clip0)">
<path d="M22.7754 5.17756C23.099 5.17756 23.3613 4.91529 23.3613 4.59162V4.58717C23.3613 4.2635 23.099 4.00342 22.7754 4.00342C22.4518 4.00342 22.1895 4.26795 22.1895 4.59154C22.1895 4.91514 22.4518 5.17756 22.7754 5.17756Z" fill="#C6A57A"/>
<path d="M19.8789 5.17756C20.2025 5.17756 20.4648 4.91529 20.4648 4.59162V4.58717C20.4648 4.2635 20.2025 4.00342 19.8789 4.00342C19.5553 4.00342 19.293 4.26795 19.293 4.59154C19.293 4.91514 19.5553 5.17756 19.8789 5.17756Z" fill="#C6A57A"/>
<path d="M16.9824 5.17756C17.306 5.17756 17.5684 4.91529 17.5684 4.59162V4.58717C17.5684 4.2635 17.306 4.00342 16.9824 4.00342C16.6588 4.00342 16.3965 4.26795 16.3965 4.59154C16.3965 4.91514 16.6588 5.17756 16.9824 5.17756Z" fill="#C6A57A"/>
<path d="M9.68109 4.00567L3.68398 4.00122C3.68383 4.00122 3.68375 4.00122 3.68359 4.00122C3.36016 4.00122 3.09789 4.26325 3.09766 4.58669C3.09742 4.91036 3.35961 5.17286 3.6832 5.1731L9.68031 5.17755H9.6807C10.0041 5.17755 10.2664 4.91552 10.2666 4.59208C10.2668 4.26849 10.0047 4.00591 9.68109 4.00567Z" fill="#C6A57A"/>
<path d="M22.4618 9.75488H13.7851C13.2434 9.75488 12.8027 10.1956 12.8027 10.7372V13.3528C12.8027 13.8956 13.2434 14.3373 13.7851 14.3373H22.4618C23.0034 14.3373 23.4441 13.8957 23.4441 13.3528V10.7372C23.4441 10.1956 23.0034 9.75488 22.4618 9.75488ZM22.2723 13.1654H13.9747V10.9268H22.2723V13.1654Z" fill="#C6A57A"/>
<path d="M22.8581 16.4231H13.3887C13.0651 16.4231 12.8027 16.6854 12.8027 17.009C12.8027 17.3327 13.0651 17.595 13.3887 17.595H22.8581C23.1817 17.595 23.4441 17.3327 23.4441 17.009C23.4441 16.6854 23.1817 16.4231 22.8581 16.4231Z" fill="#C6A57A"/>
<path d="M14.8348 19.198H13.3887C13.0651 19.198 12.8027 19.4603 12.8027 19.7839C12.8027 20.1076 13.0651 20.3699 13.3887 20.3699H14.8348C15.1584 20.3699 15.4207 20.1076 15.4207 19.7839C15.4207 19.4603 15.1584 19.198 14.8348 19.198Z" fill="#C6A57A"/>
<path d="M22.8574 19.198H18.0098C17.6862 19.198 17.4238 19.4603 17.4238 19.7839C17.4238 20.1076 17.6862 20.3699 18.0098 20.3699H22.8574C23.181 20.3699 23.4434 20.1076 23.4434 19.7839C23.4434 19.4603 23.181 19.198 22.8574 19.198Z" fill="#C6A57A"/>
<path d="M34.7504 35.2144H34.7305C34.4069 35.2144 34.1445 35.4766 34.1445 35.8003C34.1445 36.124 34.4069 36.3862 34.7305 36.3862H34.7504C35.074 36.3862 35.3363 36.124 35.3363 35.8003C35.3363 35.4766 35.074 35.2144 34.7504 35.2144Z" fill="#C6A57A"/>
<path d="M38.3334 23.5741H33.7151V13.4921C33.7151 12.5805 32.9734 11.8388 32.0617 11.8388H26.4602V2.88629C26.4602 1.99535 25.7353 1.27051 24.8444 1.27051H1.6157C0.724766 1.27059 0 1.99535 0 2.88629V21.7705C0 22.6626 0.724766 23.3884 1.6157 23.3884H4.25641V30.9768C4.25641 31.8884 4.99812 32.6301 5.90977 32.6301H14.0522L13.3595 34.9462H12.1881C11.1458 34.9462 10.2978 35.7952 10.2978 36.8389V37.7535C10.2978 38.2915 10.7355 38.7292 11.2735 38.7292H26.698C27.2361 38.7292 27.6737 38.2914 27.6737 37.7535V36.8389C27.6737 35.7953 26.8248 34.9462 25.7812 34.9462H24.61L23.9188 32.6301H29.5003V37.0625C29.5003 37.9815 30.247 38.7292 31.1648 38.7292H38.3334C39.2523 38.7292 40 37.9815 40 37.0625V25.2386C40 24.3208 39.2523 23.5741 38.3334 23.5741ZM1.17188 21.7705V7.90816H11.878C12.2016 7.90816 12.464 7.6459 12.464 7.32223C12.464 6.99855 12.2016 6.73629 11.878 6.73629H1.17188V2.88629C1.17188 2.64152 1.37094 2.44238 1.6157 2.44238H24.8444C25.0891 2.44238 25.2883 2.64152 25.2883 2.88629V6.73621H14.5843C14.2607 6.73621 13.9984 6.99848 13.9984 7.32215C13.9984 7.64582 14.2607 7.90809 14.5843 7.90809H25.2883V21.7704C25.2883 22.0163 25.0891 22.2164 24.8444 22.2164H1.6157C1.37094 22.2165 1.17188 22.0164 1.17188 21.7705ZM24.8444 23.3884C25.7353 23.3884 26.4602 22.6626 26.4602 21.7705V13.0107H32.0617C32.3272 13.0107 32.5432 13.2267 32.5432 13.4921V23.5741H31.1648C30.247 23.5741 29.5003 24.3208 29.5003 25.2386V28.4951H5.42828V23.3885H24.8444V23.3884ZM26.5018 36.8389V37.5573H11.4697V36.8389C11.4697 36.4414 11.792 36.1181 12.1881 36.1181H25.7812C26.1785 36.1181 26.5018 36.4414 26.5018 36.8389ZM20.3288 31.4582C20.0052 31.4582 19.7429 31.7205 19.7429 32.0442C19.7429 32.3679 20.0052 32.6301 20.3288 32.6301H22.6959L23.387 34.9462H14.5827L15.2753 32.6301H17.6338C17.9573 32.6301 18.2197 32.3679 18.2197 32.0442C18.2197 31.7205 17.9573 31.4582 17.6338 31.4582H5.90977C5.6443 31.4582 5.42828 31.2422 5.42828 30.9768V29.6669H29.5004V31.4582H20.3288ZM38.8281 37.0625C38.8281 37.3354 38.6062 37.5573 38.3334 37.5573H31.1648C30.8931 37.5573 30.6722 37.3354 30.6722 37.0625V25.2386C30.6722 24.967 30.8931 24.746 31.1648 24.746H38.3334C38.6062 24.746 38.8281 24.967 38.8281 25.2386V37.0625Z" fill="#C6A57A"/>
<path d="M9.97297 9.75488H4.00023C3.45734 9.75488 3.01562 10.1956 3.01562 10.7372V19.3853C3.01562 19.9282 3.45727 20.37 4.00023 20.37H9.97297C10.5159 20.37 10.9575 19.9283 10.9575 19.3853V10.7373C10.9575 10.1956 10.5159 9.75488 9.97297 9.75488ZM9.78562 19.1981H4.18758V10.9268H9.78562V19.1981Z" fill="#C6A57A"/>
</g>
<defs>
<clipPath id="clip0">
<rect width="40" height="40" fill="white"/>
</clipPath>
</defs>
</svg>
