<svg width="20" height="14" viewBox="0 0 20 14" fill="none" xmlns="http://www.w3.org/2000/svg">
<path d="M11.16 13.7442V8.12824C11.16 5.53624 11.768 3.61624 12.984 2.36824C14.2 1.08824 16.056 0.352242 18.552 0.160242L19.176 2.65624C16.424 3.13624 15.048 4.48024 15.048 6.68824V7.12024H17.544V13.7442H11.16ZM0.024 13.7442V8.12824C0.024 5.53624 0.632 3.61624 1.848 2.36824C3.064 1.08824 4.92 0.352242 7.416 0.160242L8.04 2.65624C5.288 3.13624 3.912 4.44824 3.912 6.59224C3.912 6.65624 3.912 6.75224 3.912 6.88024C3.944 6.97624 3.96 7.05624 3.96 7.12024H6.408V13.7442H0.024Z" fill="#c6a57a"/>
</svg>
